name C:/MyDriveSym/Projects/mobilecap/Data\Session20210820_0002\mocap\ForceDataProcessed\walkingTS2_forces.mot
datacolumns 19
datarows 12
range 0.72950000 0.73500000
endheader 
time	R_ground_force_vx	R_ground_force_vy	R_ground_force_vz	R_ground_force_px	R_ground_force_py	R_ground_force_pz	R_ground_torque_x	R_ground_torque_y	R_ground_torque_z	L_ground_force_vx	L_ground_force_vy	L_ground_force_vz	L_ground_force_px	L_ground_force_py	L_ground_force_pz	L_ground_torque_x	L_ground_torque_y	L_ground_torque_z	
          0.72950000	         25.30322600	        135.01634400	         -6.25732000	          0.36372500	          0.00600000	         -0.09985600	          0.00000000	         -0.79596600	          0.00000000	       -109.22362500	        755.44912700	         31.15704600	          0.89286000	          0.00600000	         -0.25669400	          0.00000000	          0.19414100	          0.00000000	
          0.73000000	         24.89293400	        133.09704300	         -6.20816700	          0.36410700	          0.00600000	         -0.09987300	          0.00000000	         -0.78515600	          0.00000000	       -109.13414800	        756.20243200	         31.25841800	          0.89300400	          0.00600000	         -0.25668100	          0.00000000	          0.18428700	          0.00000000	
          0.73050000	         24.48537700	        131.19218900	         -6.15924200	          0.36449300	          0.00600000	         -0.09989000	          0.00000000	         -0.77436400	          0.00000000	       -109.04177700	        756.94419300	         31.35840600	          0.89314900	          0.00600000	         -0.25666700	          0.00000000	          0.17439200	          0.00000000	
          0.73100000	         24.08057900	        129.30178300	         -6.11054000	          0.36488500	          0.00600000	         -0.09990700	          0.00000000	         -0.76359100	          0.00000000	       -108.94653900	        757.67442800	         31.45702100	          0.89329300	          0.00600000	         -0.25665300	          0.00000000	          0.16445800	          0.00000000	
          0.73150000	         23.67856400	        127.42582700	         -6.06205700	          0.36528200	          0.00600000	         -0.09992300	          0.00000000	         -0.75283600	          0.00000000	       -108.84846300	        758.39315200	         31.55427700	          0.89343700	          0.00600000	         -0.25663900	          0.00000000	          0.15448600	          0.00000000	
          0.73200000	         23.27935500	        125.56432000	         -6.01379000	          0.36568400	          0.00600000	         -0.09994000	          0.00000000	         -0.74210000	          0.00000000	       -108.74757700	        759.10038500	         31.65018400	          0.89358100	          0.00600000	         -0.25662500	          0.00000000	          0.14447700	          0.00000000	
          0.73250000	         22.88297300	        123.71726000	         -5.96573500	          0.36609200	          0.00600000	         -0.09995600	          0.00000000	         -0.73138400	          0.00000000	       -108.64391100	        759.79614600	         31.74475500	          0.89372500	          0.00600000	         -0.25661000	          0.00000000	          0.13443300	          0.00000000	
          0.73300000	         22.48944100	        121.88464200	         -5.91788700	          0.36650500	          0.00600000	         -0.09997200	          0.00000000	         -0.72068700	          0.00000000	       -108.53749200	        760.48045600	         31.83800300	          0.89386900	          0.00600000	         -0.25659500	          0.00000000	          0.12435500	          0.00000000	
          0.73350000	         22.09878000	        120.06646200	         -5.87024400	          0.36692400	          0.00600000	         -0.09998800	          0.00000000	         -0.71001100	          0.00000000	       -108.42834900	        761.15333500	         31.92994200	          0.89401300	          0.00600000	         -0.25658000	          0.00000000	          0.11424500	          0.00000000	
          0.73400000	         21.71101000	        118.26271300	         -5.82280100	          0.36734900	          0.00600000	         -0.10000300	          0.00000000	         -0.69935500	          0.00000000	       -108.31651300	        761.81480800	         32.02058300	          0.89415600	          0.00600000	         -0.25656500	          0.00000000	          0.10410300	          0.00000000	
          0.73450000	         21.32614900	        116.47338400	         -5.77555500	          0.36778000	          0.00600000	         -0.10001900	          0.00000000	         -0.68872100	          0.00000000	       -108.20201300	        762.46489900	         32.10994000	          0.89430000	          0.00600000	         -0.25655000	          0.00000000	          0.09393100	          0.00000000	
          0.73500000	         20.94421800	        114.69846700	         -5.72850300	          0.36821700	          0.00600000	         -0.10003400	          0.00000000	         -0.67810800	          0.00000000	       -108.08487800	        763.10363200	         32.19802800	          0.89444300	          0.00600000	         -0.25653400	          0.00000000	          0.08373000	          0.00000000	
